<?xml version="1.0" encoding="utf-8"?>
<!-- Generator: Adobe Illustrator 23.0.1, SVG Export Plug-In . SVG Version: 6.00 Build 0)  -->
<svg version="1.1" id="Layer_1" xmlns="http://www.w3.org/2000/svg" xmlns:xlink="http://www.w3.org/1999/xlink" x="0px" y="0px"
	 viewBox="0 0 3922.88 1024" style="enable-background:new 0 0 3922.88 1024;" xml:space="preserve">
<style type="text/css">
	.st0{fill:#902AA9;}
	.st1{fill:#803193;}
	.st2{fill:#540766;}
	.st3{fill:#FFFFFF;}
	.st4{fill:#FFFFFF;stroke:#FF00FF;stroke-width:2.8346;stroke-miterlimit:10;}
</style>
<g>
	<g>
		<path class="st0" d="M386.73,903.45c27.21-1.94,52.48-5.83,77.76-11.66c7.78-1.94,11.66-7.78,11.66-15.55V370.83
			c0-13.61-15.55-19.44-25.27-11.66l-141.9,118.58c-3.89,3.89-5.83,7.78-5.83,11.66v400.44c0,7.78,7.78,15.55,15.55,15.55
			C342.02,905.39,365.34,905.39,386.73,903.45L386.73,903.45z"/>
		<path class="st1" d="M689.97,83.13L534.46,215.31c-9.72,9.72-15.55,21.38-15.55,34.99v672.58c0,33.05,33.05,54.43,62.2,42.77
			c31.1-11.66,58.32-25.27,85.53-40.82c15.55-7.78,23.33,34.99,23.33,19.44V83.13L689.97,83.13z"/>
		<path class="st2" d="M305.08,827.64v60.26h173.01v-75.81c-29.16,5.83-58.32,11.66-89.42,13.61
			C359.51,827.64,332.3,827.64,305.08,827.64L305.08,827.64z"/>
		<path class="st2" d="M518.91,806.26v85.53h124.41c15.55-5.83,31.1-13.61,46.65-19.44V732.39
			C639.43,763.49,581.11,788.76,518.91,806.26L518.91,806.26z"/>
		<g>
			<path class="st0" d="M859.09,250.3v200.22c0,7.78,5.83,13.61,13.61,13.61h295.47c7.78,0,13.61,5.83,13.61,13.61v136.07
				c0,7.78-5.83,13.61-13.61,13.61H870.75c-7.78,0-13.61,5.83-13.61,13.61v252.71c0,7.78-5.83,13.61-13.61,13.61H693.86
				c-7.78,0-13.61-5.83-13.61-13.61V96.74c0-7.78,5.83-13.61,13.61-13.61h526.79c7.78,0,13.61,5.83,13.61,13.61v130.24
				c0,7.78-5.83,13.61-13.61,13.61h-349.9C864.92,238.64,859.09,244.47,859.09,250.3z"/>
		</g>
		<path class="st0" d="M264.26,802.37V555.49L108.75,687.68C151.52,734.33,204,773.21,264.26,802.37z"/>
		<path class="st3" d="M104.86,689.62l3.89-1.94c-15.55-17.5-29.16-34.99-42.77-52.48c7.78,25.27,17.49,48.6,29.16,69.98
			C97.09,699.34,99.03,695.45,104.86,689.62z"/>
		<path class="st4" d="M1105.96,491.35l-66.09,33.05L853.26,617.7l138.02,11.66c-89.42,136.07-264.37,229.38-464.59,229.38
			c-95.25,0-184.67-21.38-262.42-58.32v1.02c-61.35-29.05-113.19-67.6-155.51-113.76l-3.89,1.94c-3.89,3.89-7.78,9.72-9.72,15.55
			c36.93,71.92,97.19,132.18,171.06,178.84v-0.76c87.14,53.69,195.26,84.35,312.97,84.35c219.66,0,408.22-110.8,487.92-270.2
			l40.82,155.51l48.6-386.83L1105.96,491.35z"/>
	</g>
	<g>
		<path class="st0" d="M1249.81,790.41V111.73c0-15.77,12.79-28.56,28.56-28.56h74.17c15.77,0,28.56,12.79,28.56,28.56v678.68
			c0,15.77-12.79,28.56-28.56,28.56h-74.17C1262.59,818.97,1249.81,806.18,1249.81,790.41z"/>
		<path class="st0" d="M2222.6,123.73v675.42c0,11.06-8.97,20.03-20.03,20.03h-91.52c-11.06,0-20.03-8.97-20.03-20.03V391.24
			c0-16.62-19.08-26.02-32.25-15.88l-96.72,74.42l-95.29,73.6c-7.21,5.57-17.28,5.57-24.49,0l-95.3-73.6l-96.71-74.42
			c-13.17-10.14-32.25-0.75-32.25,15.88v407.91c0,11.06-8.97,20.03-20.03,20.03h-91.52c-11.06,0-20.03-8.97-20.03-20.03V123.73
			c0-16.63,19.09-26.02,32.27-15.87l99.32,76.56l224.28,172.87c7.21,5.56,17.25,5.56,24.46,0l224.28-172.87l99.32-76.56
			C2203.51,97.71,2222.6,107.1,2222.6,123.73z"/>
		<path class="st0" d="M3063.57,584.56c0,129.58-105.01,234.58-234.58,234.58h-501.22v-0.04h-0.08V231.45
			c0-81.92,66.41-148.32,148.32-148.32h315.9c109.78,0,198.79,89.01,198.79,198.78c0,39.64-11.92,76.34-31.89,107.32
			c-0.02,0.03-0.01,0.06,0.02,0.08C3021.88,431.36,3063.53,503.01,3063.57,584.56z M2458.98,349.49h331.8
			c37.14,0,68.16-29.49,68.7-66.63c0.55-37.75-30-68.63-67.62-68.63h-332.89c-0.03,0-0.06,0.02-0.06,0.06v135.15
			C2458.93,349.47,2458.95,349.49,2458.98,349.49z M2932.37,583.48c-0.56-56.95-47.86-102.4-104.81-102.4h-368.57
			c-0.03,0-0.06,0.02-0.06,0.06V687.9c0,0.03,0.03,0.06,0.06,0.06h369.95C2886.29,687.96,2932.94,640.96,2932.37,583.48z"/>
		<path class="st0" d="M3849.84,409.03c24.62,222.04-148.53,409.99-365.58,409.99c-203.15,0-367.88-164.72-367.88-367.93
			c0-217.04,187.9-390.19,409.92-365.58C3696.22,104.34,3831,239.11,3849.84,409.03z M3721.03,451.05
			c0-130.58-106.23-236.77-236.77-236.77c-130.54,0-236.73,106.19-236.73,236.77s106.19,236.77,236.73,236.77
			C3614.8,687.82,3721.03,581.63,3721.03,451.05z"/>
	</g>
</g>
</svg>
