<?xml version="1.0" encoding="utf-8"?>
<!-- Generator: Adobe Illustrator 23.0.1, SVG Export Plug-In . SVG Version: 6.00 Build 0)  -->
<svg version="1.1" id="Layer_1" xmlns="http://www.w3.org/2000/svg" xmlns:xlink="http://www.w3.org/1999/xlink" x="0px" y="0px"
	 viewBox="0 0 64 64" style="enable-background:new 0 0 64 64;" xml:space="preserve">
<style type="text/css">
	.st0{fill:#FCFCFC;}
	.st1{fill:#F3E2F7;}
	.st2{fill:#540766;}
	.st3{fill:#902AA9;}
	.st4{fill:#FFFFFF;}
</style>
<path class="st0" d="M17.7,48.4c1.4-0.1,2.7-0.3,4-0.6c0.4-0.1,0.6-0.4,0.6-0.8l0-26c0-0.7-0.8-1-1.3-0.6l-7.3,6.1
	c-0.2,0.2-0.3,0.4-0.3,0.6l0,20.6c0,0.4,0.4,0.8,0.8,0.8C15.4,48.5,16.5,48.5,17.7,48.4L17.7,48.4z"/>
<path class="st1" d="M33.3,6.2l-8,6.8c-0.5,0.5-0.8,1.1-0.8,1.8v34.6c0,1.7,1.7,2.8,3.2,2.2c1.6-0.6,3-1.3,4.4-2.1
	c0.8-0.4,1.2,1.8,1.2,1V6.2L33.3,6.2z"/>
<path class="st2" d="M13.5,44.5v3.1h8.9v-3.9c-1.5,0.3-3,0.6-4.6,0.7C16.3,44.5,14.9,44.5,13.5,44.5L13.5,44.5z"/>
<path class="st2" d="M24.4,43.3v4.4h6.4c0.8-0.3,1.6-0.7,2.4-1v-7.2C30.6,41.2,27.7,42.5,24.4,43.3L24.4,43.3z"/>
<path class="st0" d="M11.4,43.1V30.5l-8.1,6.8C5.5,39.7,8.2,41.7,11.4,43.1z"/>
<path class="st3" d="M54.7,27.2l-3.4,1.7l-9.6,4.8l7.1,0.6c-4.6,7-13.6,11.8-23.9,11.8c-4.9,0-9.5-1.1-13.5-3v4.2
	c4.5,2.8,10.1,4.4,16.2,4.4c11.3,0,21-5.7,25.1-13.9l2.1,8l2.5-20.1L54.7,27.2z"/>
<path class="st4" d="M3.1,37.4l0.2-0.1c-0.8-0.9-1.5-1.8-2.2-2.7C1.5,35.8,2,37,2.6,38.2C2.7,37.9,2.9,37.6,3.1,37.4z"/>
<path class="st4" d="M3.3,37.3l-0.2,0.1c-0.2,0.2-0.4,0.5-0.5,0.8c1.9,3.7,5,6.8,8.8,9.2v-4.2C8.2,41.7,5.5,39.7,3.3,37.3z"/>
<g>
	<path class="st0" d="M41.9,14.8v10.3c0,0.4,0.3,0.7,0.7,0.7h15.2c0.4,0,0.7,0.3,0.7,0.7v7c0,0.4-0.3,0.7-0.7,0.7H42.6
		c-0.4,0-0.7,0.3-0.7,0.7l0.1,6.3l-0.8,0.4L36.5,44c0,0,0,0,0,0l-3.5,1.1V6.8c0-0.4,0.3-0.7,0.7-0.7h27.1c0.4,0,0.7,0.3,0.7,0.7v6.7
		c0,0.4-0.3,0.7-0.7,0.7H42.6C42.2,14.2,41.9,14.5,41.9,14.8z"/>
</g>
</svg>
