<?xml version="1.0" encoding="utf-8"?>
<!-- Generator: Adobe Illustrator 23.0.1, SVG Export Plug-In . SVG Version: 6.00 Build 0)  -->
<svg version="1.1" id="Layer_1" xmlns="http://www.w3.org/2000/svg" xmlns:xlink="http://www.w3.org/1999/xlink" x="0px" y="0px"
	 viewBox="0 0 64 64" style="enable-background:new 0 0 64 64;" xml:space="preserve">
<style type="text/css">
	.st0{fill:#902AA9;}
	.st1{fill:#803193;}
	.st2{fill:#540766;}
	.st3{fill:#FFFFFF;}
</style>
<g>
	<path class="st0" d="M17.4,51.1c1.4-0.1,2.7-0.3,4-0.6c0.4-0.1,0.6-0.4,0.6-0.8l0-26c0-0.7-0.8-1-1.3-0.6l-7.3,6.1
		c-0.2,0.2-0.3,0.4-0.3,0.6l0,20.6c0,0.4,0.4,0.8,0.8,0.8C15.1,51.2,16.3,51.2,17.4,51.1L17.4,51.1z"/>
	<path class="st1" d="M33,8.9l-8,6.8c-0.5,0.5-0.8,1.1-0.8,1.8v34.6c0,1.7,1.7,2.8,3.2,2.2c1.6-0.6,3-1.3,4.4-2.1
		c0.8-0.4,1.2,1.8,1.2,1V8.9L33,8.9z"/>
	<path class="st2" d="M13.2,47.2v3.1h8.9v-3.9c-1.5,0.3-3,0.6-4.6,0.7C16,47.2,14.6,47.2,13.2,47.2L13.2,47.2z"/>
	<path class="st2" d="M24.2,46.1v4.4h6.4c0.8-0.3,1.6-0.7,2.4-1v-7.2C30.4,43.9,27.4,45.2,24.2,46.1L24.2,46.1z"/>
	<g>
		<path class="st0" d="M41.7,17.5v10.3c0,0.4,0.3,0.7,0.7,0.7h15.2c0.4,0,0.7,0.3,0.7,0.7v7c0,0.4-0.3,0.7-0.7,0.7H42.3
			c-0.4,0-0.7,0.3-0.7,0.7v13c0,0.4-0.3,0.7-0.7,0.7h-7.7c-0.4,0-0.7-0.3-0.7-0.7V9.6c0-0.4,0.3-0.7,0.7-0.7h27.1
			c0.4,0,0.7,0.3,0.7,0.7v6.7c0,0.4-0.3,0.7-0.7,0.7H42.3C42,16.9,41.7,17.2,41.7,17.5z"/>
	</g>
	<path class="st0" d="M11.1,45.9V33.2L3.1,40C5.3,42.4,8,44.4,11.1,45.9z"/>
	<path class="st3" d="M54.4,29.9l-3.4,1.7l-9.6,4.8l7.1,0.6c-4.6,7-13.6,11.8-23.9,11.8c-4.9,0-9.5-1.1-13.5-3v4.2
		c4.5,2.8,10.1,4.4,16.2,4.4c11.3,0,21-5.7,25.1-13.9l2.1,8L57,28.6L54.4,29.9z"/>
	<path class="st3" d="M2.9,40.1L3.1,40c-0.8-0.9-1.5-1.8-2.2-2.7c0.4,1.3,0.9,2.5,1.5,3.6C2.5,40.6,2.6,40.4,2.9,40.1z"/>
	<path class="st3" d="M3.1,40l-0.2,0.1c-0.2,0.2-0.4,0.5-0.5,0.8c1.9,3.7,5,6.8,8.8,9.2v-4.2C8,44.4,5.3,42.4,3.1,40z"/>
</g>
</svg>
